<?xml version="1.0" standalone="no"?>
<!DOCTYPE svg PUBLIC "-//W3C//DTD SVG 20010904//EN"
 "http://www.w3.org/TR/2001/REC-SVG-20010904/DTD/svg10.dtd">
<svg version="1.0" xmlns="http://www.w3.org/2000/svg"
 width="2424.000000pt" height="2424.000000pt" viewBox="0 0 2424.000000 2424.000000"
 preserveAspectRatio="xMidYMid meet">
<metadata>
Created by potrace 1.14, written by Peter Selinger 2001-2017
</metadata>
<g transform="translate(0.000000,2424.000000) scale(0.100000,-0.100000)"
fill="#000000" stroke="none">
<path d="M1755 14792 l-101 -3 0 -99 c-1 -64 3 -100 10 -103 6 -2 1239 -3
2741 -3 l2730 1 2 103 c1 90 0 102 -15 102 -157 2 -5296 4 -5367 2z"/>
<path d="M10484 14780 c-122 -32 -224 -90 -300 -171 -33 -35 -114 -156 -114
-170 0 -4 -5 -20 -12 -36 -6 -15 -12 -31 -13 -35 -2 -5 -4 -10 -5 -13 -1 -3
-3 -8 -4 -12 -37 -166 -34 -341 10 -472 67 -203 205 -332 414 -387 45 -12 103
-18 190 -18 115 0 133 3 220 33 52 18 97 36 100 40 3 5 19 15 35 24 36 18 121
98 157 147 59 78 107 203 123 315 8 56 7 209 -1 246 -3 13 -7 38 -10 54 -27
153 -146 321 -280 392 -108 57 -177 74 -314 78 -97 3 -141 -1 -196 -15z m226
-23 c78 -17 172 -124 218 -249 23 -63 28 -78 47 -183 14 -70 14 -352 1 -405
-6 -24 -11 -47 -22 -98 -10 -50 -55 -154 -83 -196 -83 -120 -203 -161 -314
-107 -40 20 -151 128 -137 134 3 1 -4 16 -16 32 -32 46 -63 140 -81 245 -9 56
-10 340 -1 397 38 226 118 368 238 422 40 18 94 21 150 8z"/>
<path d="M17062 14792 l-53 -3 3 -102 3 -102 2733 0 c1504 0 2737 2 2741 5 4
3 7 49 7 103 l-1 97 -175 0 c-1533 3 -5218 4 -5258 2z"/>
<path d="M7347 14772 c-37 -7 -13 -36 33 -40 52 -5 78 -26 86 -69 10 -52 11
-1009 1 -1056 -4 -22 -13 -45 -21 -52 -14 -15 -82 -36 -90 -28 -2 3 -9 -5 -16
-16 -9 -18 -8 -21 7 -22 10 -1 22 -1 28 1 5 1 227 1 493 1 l483 0 -7 22 c-4
12 -8 112 -9 222 -1 148 -4 200 -13 199 -29 -2 -32 -5 -32 -28 0 -35 -44 -158
-74 -211 -34 -58 -94 -117 -143 -141 -29 -15 -63 -19 -147 -21 -60 -1 -117 2
-127 8 -10 5 -22 24 -27 42 -15 53 -8 1066 7 1104 13 32 36 43 106 48 11 1 21
10 23 21 3 18 -7 19 -271 19 -150 0 -281 -1 -290 -3z"/>
<path d="M13002 14762 c-7 -18 1 -23 45 -29 22 -3 49 -15 63 -29 l25 -24 0
-533 c0 -292 -3 -544 -7 -558 -9 -32 -46 -58 -90 -63 -18 -2 -37 -4 -42 -5 -5
0 -1 -10 9 -21 10 -11 21 -17 26 -14 5 2 139 5 299 5 275 -1 290 0 290 18 0
15 -11 19 -63 24 -129 12 -130 13 -132 317 0 129 1 241 3 248 7 19 108 13 152
-9 61 -30 104 -97 124 -191 4 -18 13 -28 25 -28 17 0 18 13 16 258 -2 222 -4
257 -18 260 -10 2 -20 -12 -32 -45 -52 -146 -101 -191 -213 -197 -39 -1 -51 1
-54 13 -6 30 -2 476 5 512 10 49 41 61 154 61 178 0 256 -67 314 -270 20 -70
19 -66 19 -88 0 -10 7 -14 20 -12 20 3 21 12 24 208 l4 205 -480 0 c-384 0
-482 -3 -486 -13z"/>
<path d="M15545 14770 c-2 -3 -2 -34 0 -70 6 -117 6 -340 1 -349 -3 -5 0 -13
7 -19 27 -23 39 2 81 171 20 79 114 193 176 212 48 15 139 22 143 11 2 -6 3
-254 2 -551 -1 -411 -4 -549 -14 -578 -16 -47 -52 -67 -126 -70 -50 -2 -55 -4
-55 -25 0 -13 4 -21 9 -17 9 5 544 7 631 2 29 -1 35 2 36 18 1 17 -6 20 -54
23 -62 3 -106 22 -124 55 -9 17 -12 159 -13 585 l0 563 58 -2 c72 -3 143 -34
182 -80 38 -46 80 -137 105 -233 25 -94 27 -99 45 -88 12 6 15 50 17 225 l3
218 -553 2 c-305 1 -555 0 -557 -3z"/>
<path d="M831 14173 l-2 -103 3156 0 3155 0 -1 103 -1 103 -3153 0 -3153 0 -1
-103z"/>
<path d="M17015 14271 c-3 -2 -5 -49 -5 -103 l0 -98 3155 0 3155 0 -3 103 -2
102 -3148 1 c-1731 0 -3150 -2 -3152 -5z"/>
<path d="M77 13722 c-3 -6 -1 -160 2 -188 1 -7 38 -11 110 -11 59 0 112 -2
117 -5 5 -3 18 -2 29 2 11 4 30 4 43 -1 12 -5 22 -5 22 -1 0 9 192 8 207 -1 7
-4 14 -4 16 0 6 9 315 9 323 0 4 -3 17 -2 31 4 17 6 22 6 17 -3 -5 -7 -3 -8 5
-3 14 8 572 12 587 3 5 -3 18 -2 29 2 11 4 30 4 43 -1 12 -5 22 -5 22 -1 0 9
192 8 207 -1 7 -4 14 -4 16 0 6 9 315 9 323 0 4 -3 17 -2 31 4 17 6 22 6 17
-3 -5 -7 -3 -8 5 -3 14 8 572 12 587 3 5 -3 18 -2 29 2 11 4 30 4 43 -1 12 -5
22 -5 22 -1 0 9 192 8 207 -1 7 -4 14 -4 16 0 6 9 315 9 323 0 4 -3 17 -2 31
4 17 6 22 6 17 -3 -5 -7 -3 -8 5 -3 14 8 572 12 587 3 5 -3 18 -2 29 2 11 4
30 4 43 -1 12 -5 22 -5 22 -1 0 9 192 8 207 -1 7 -4 14 -4 16 0 6 9 315 9 323
0 4 -3 17 -2 31 4 17 6 22 6 17 -3 -5 -7 -3 -8 5 -3 14 8 572 12 587 3 5 -3
18 -2 29 2 11 4 30 4 43 -1 12 -5 22 -5 22 -1 0 9 192 8 207 -1 7 -4 14 -4 16
0 6 9 315 9 323 0 4 -3 17 -2 31 4 17 6 22 6 17 -3 -5 -7 -3 -8 5 -3 9 5 460
9 591 5 8 -1 43 0 78 2 34 2 62 0 62 -3 0 -4 15 -3 34 1 18 4 41 3 50 -2 9 -5
16 -5 16 -1 0 4 43 8 95 7 l96 0 -3 100 -3 101 -3528 2 c-1940 0 -3528 -2
-3530 -5z"/>
<path d="M17014 13716 c-3 -7 -4 -53 -2 -102 l3 -89 207 -1 c114 -1 214 -4
222 -7 8 -3 17 -3 20 0 5 5 277 8 301 3 6 -1 15 -2 20 -1 29 6 315 2 324 -3 6
-4 11 -4 11 1 0 10 412 9 429 -1 6 -4 11 -3 11 1 0 5 15 8 33 6 32 -3 131 -3
177 1 14 1 33 -2 43 -7 9 -4 17 -4 17 0 0 9 511 8 534 0 8 -3 17 -3 20 0 5 5
277 8 301 3 6 -1 15 -2 20 -1 29 6 315 2 324 -3 6 -4 11 -4 11 1 0 10 412 9
429 -1 6 -4 11 -3 11 1 0 5 15 8 33 6 32 -3 131 -3 177 1 14 1 33 -2 43 -7 9
-4 17 -4 17 0 0 9 511 8 534 0 8 -3 17 -3 20 0 5 5 277 8 301 3 6 -1 15 -2 20
-1 29 6 315 2 324 -3 6 -4 11 -4 11 1 0 10 412 9 429 -1 6 -4 11 -3 11 1 0 5
15 8 33 6 32 -3 131 -3 177 1 14 1 33 -2 43 -7 9 -4 17 -4 17 0 0 9 511 8 534
0 8 -3 17 -3 20 0 5 5 277 8 301 3 6 -1 15 -2 20 -1 15 3 368 3 380 1 6 -1 15
-1 20 0 6 1 33 2 60 2 28 0 55 4 60 8 6 5 9 48 7 103 l-3 95 -3525 0 c-2771 0
-3526 -3 -3530 -12z"/>
<path d="M43 13208 c-18 -13 -34 -32 -37 -43 -3 -11 -6 -658 -6 -1438 0 -1289
1 -1421 16 -1446 9 -15 25 -33 36 -40 26 -16 584 -17 620 -1 59 27 56 -9 57
874 0 444 2 810 4 813 3 2 18 -22 34 -54 17 -32 48 -92 71 -133 23 -41 54
-100 69 -130 16 -30 30 -57 33 -60 3 -3 14 -23 26 -45 25 -50 89 -167 165
-307 33 -59 59 -109 59 -112 0 -3 14 -26 31 -51 53 -79 71 -85 246 -85 83 0
162 4 175 9 56 23 73 47 186 261 21 41 53 100 69 130 16 30 58 109 93 175 35
66 66 122 69 125 3 3 37 66 75 140 38 74 71 138 75 142 3 4 6 -358 5 -805 0
-870 -2 -847 50 -881 27 -17 55 -18 488 -16 l128 0 34 33 34 34 1 1424 c0
1401 0 1425 -19 1457 -11 18 -32 37 -46 42 -14 6 -139 10 -281 10 -243 0 -257
-1 -304 -22 -27 -13 -49 -26 -49 -29 0 -3 -23 -46 -51 -95 -28 -49 -55 -98
-60 -109 -5 -11 -19 -36 -31 -55 -11 -19 -35 -60 -51 -90 -17 -30 -43 -77 -59
-105 -16 -27 -44 -79 -64 -115 -19 -36 -45 -83 -58 -105 -13 -22 -68 -121
-123 -220 -55 -99 -109 -196 -120 -215 -11 -19 -35 -62 -53 -95 -18 -33 -42
-72 -52 -87 -11 -16 -16 -28 -12 -28 4 0 0 -8 -8 -17 -8 -10 -18 -27 -22 -37
-8 -24 -15 -17 -56 59 -18 33 -42 76 -53 95 -11 19 -31 55 -45 80 -14 25 -44
79 -67 120 -23 41 -59 107 -80 145 -21 39 -58 103 -82 143 -24 41 -43 76 -43
79 0 2 -29 55 -64 116 -59 105 -239 425 -275 492 -9 17 -25 38 -36 49 -45 42
-72 46 -347 46 -257 0 -264 -1 -295 -22z"/>
<path d="M4952 13217 c-12 -7 -29 -23 -38 -36 -15 -21 -17 -149 -17 -1447 0
-1185 2 -1429 14 -1450 30 -58 -22 -55 1117 -55 1009 0 1047 1 1072 19 44 33
47 50 48 290 0 247 -4 269 -56 295 -22 12 -151 14 -730 13 -387 0 -708 2 -713
5 -11 7 -17 119 -7 119 4 0 5 6 3 13 -9 22 -10 147 -2 147 5 0 6 4 2 9 -4 8
-7 115 -4 171 0 8 0 33 -2 55 -4 81 -6 80 143 78 73 -2 139 -3 146 -3 6 0 53
0 102 0 50 0 97 0 105 0 8 0 69 0 135 0 66 0 127 0 135 0 8 0 56 0 105 0 50 0
97 0 105 0 190 0 257 0 268 -1 32 -3 84 14 107 37 25 24 25 25 28 244 3 185 1
224 -13 253 -30 64 -3 61 -714 61 -574 0 -648 2 -649 16 -3 40 -2 194 2 197 2
3 0 18 -4 34 -5 17 -5 31 1 35 5 3 7 10 3 15 -3 5 -5 49 -5 97 1 48 1 108 1
135 0 46 0 47 32 48 18 0 335 1 703 2 653 2 671 3 697 22 38 28 42 57 42 302
0 231 -5 252 -56 279 -38 20 -2070 20 -2106 1z"/>
<path d="M9043 13220 c-13 -5 -31 -22 -41 -38 -16 -28 -17 -109 -17 -1461 l0
-1431 30 -28 c17 -15 37 -28 45 -30 35 -8 1495 0 1495 8 0 1 16 3 35 5 51 5
99 14 150 29 25 7 47 14 50 14 6 1 30 9 75 24 34 12 182 86 199 99 81 64 138
114 171 150 42 45 105 132 105 144 0 4 9 20 21 36 11 16 18 29 15 29 -3 0 5
24 18 53 82 188 82 504 -1 694 -9 21 -17 41 -17 44 -1 4 -22 40 -48 81 -150
236 -425 387 -773 424 -38 4 -233 8 -432 8 -200 1 -364 3 -364 6 -1 3 -2 116
-3 253 -1 241 -1 247 19 248 11 0 328 1 705 1 377 1 696 5 709 10 34 12 61 46
62 77 6 117 3 472 -4 494 -5 15 -20 36 -34 47 -25 20 -41 20 -1087 19 -606 0
-1071 -4 -1083 -9z m1140 -1690 c213 -2 264 -12 340 -71 87 -66 128 -152 132
-273 7 -190 -88 -331 -259 -386 -28 -9 -126 -13 -337 -14 -257 -1 -298 1 -301
14 -2 8 -4 175 -3 370 l0 355 45 5 c25 3 79 4 120 3 41 -1 160 -2 263 -3z"/>
<path d="M13200 13213 c-14 -9 -30 -24 -37 -33 -9 -11 -12 -341 -13 -1443 0
-1555 -3 -1469 56 -1495 38 -18 2099 -18 2137 -1 48 22 56 58 57 255 1 299 1
300 -47 331 -25 17 -71 18 -733 20 -388 0 -711 1 -717 2 -10 1 -13 67 -13 296
0 162 3 295 8 296 41 5 82 3 82 -4 0 -6 5 -6 13 0 6 5 64 7 127 6 63 -2 121
-3 128 -3 6 0 53 0 102 0 50 0 97 0 105 0 8 0 69 0 135 0 66 0 127 0 135 0 8
0 56 0 105 0 50 0 96 0 103 0 141 -1 275 8 294 20 39 25 43 53 44 275 0 170
-3 219 -14 242 -31 59 -10 57 -716 58 l-646 0 -2 288 -3 287 63 0 c34 1 350 1
701 2 626 0 640 1 667 20 15 12 31 32 35 47 4 14 8 125 9 246 2 234 -2 258
-47 289 -19 14 -141 16 -1058 16 -961 0 -1037 -1 -1060 -17z"/>
<path d="M17643 13211 c-17 -11 -35 -30 -39 -43 -4 -13 -8 -291 -10 -618 -1
-327 -4 -633 -8 -680 -12 -175 -24 -279 -41 -370 -3 -14 -7 -38 -10 -55 -32
-188 -103 -360 -185 -443 -48 -48 -111 -83 -189 -102 -24 -7 -57 -24 -72 -40
l-29 -28 3 -271 2 -271 28 -27 c27 -27 31 -28 135 -27 99 0 209 9 257 21 11 3
29 6 40 8 11 2 20 4 20 5 0 1 11 4 25 7 32 6 41 8 65 17 184 70 242 103 342
201 40 40 73 75 73 78 0 4 16 29 35 56 38 53 90 161 124 256 19 56 68 261 70
295 0 8 2 26 5 40 11 60 31 236 41 370 9 121 16 360 17 648 1 166 4 303 7 303
4 1 182 2 398 3 l391 1 0 -1106 c0 -609 3 -1121 7 -1138 4 -19 18 -38 40 -51
32 -20 48 -21 341 -21 287 0 309 1 333 19 14 10 32 30 38 43 16 30 19 2834 3
2871 -5 13 -16 32 -25 43 -16 20 -29 20 -1108 23 -1065 2 -1093 2 -1124 -17z"/>
<path d="M21909 13217 c-59 -23 -56 55 -55 -1492 1 -1133 4 -1425 14 -1443 32
-55 8 -54 684 -52 617 1 691 3 778 15 342 50 586 189 744 425 24 36 53 83 64
105 17 36 51 129 53 147 0 4 5 22 10 40 6 18 12 51 15 73 2 22 6 51 9 64 7 27
7 234 1 271 -3 14 -7 43 -10 65 -3 22 -10 55 -15 73 -5 18 -10 33 -10 35 3 35
-72 196 -124 267 -119 162 -342 300 -561 346 -99 21 -166 31 -271 40 -22 2
-168 4 -325 5 l-285 2 1 461 c0 253 -4 476 -9 494 -5 21 -20 40 -40 52 -30 19
-51 20 -337 19 -187 -1 -315 -5 -331 -12z m1275 -1624 c71 -18 120 -47 164
-97 26 -30 81 -121 73 -121 -2 0 0 -17 4 -38 30 -158 -12 -324 -105 -415 -88
-86 -145 -98 -460 -96 -118 1 -219 2 -225 3 -6 1 -10 135 -9 383 1 211 2 387
3 391 0 4 112 7 249 7 186 -1 262 -5 306 -17z"/>
<path d="M82 10046 c-4 -6 -7 -51 -7 -101 l1 -90 11997 -2 11997 -2 1 67 c0
37 1 83 2 103 l2 36 -11993 0 c-8674 0 -11994 -3 -12000 -11z"/>
<path d="M696 9640 c-2 -3 -3 -48 -2 -100 l1 -95 11311 -3 11312 -2 -2 102 -1
103 -11308 0 c-6220 1 -11310 -1 -11311 -5z"/>
</g>
</svg>
